<?xml version="1.0" encoding="utf-8"?>
<!-- Generator: Adobe Illustrator 16.0.4, SVG Export Plug-In . SVG Version: 6.00 Build 0)  -->
<!DOCTYPE svg PUBLIC "-//W3C//DTD SVG 1.1//EN" "http://www.w3.org/Graphics/SVG/1.1/DTD/svg11.dtd">
<svg version="1.1" id="Layer_1" xmlns="http://www.w3.org/2000/svg" xmlns:xlink="http://www.w3.org/1999/xlink" x="0px" y="0px"
	 width="235.625px" height="80.875px" viewBox="23.605 3.145 235.625 80.875" enable-background="new 23.605 3.145 235.625 80.875"
	 xml:space="preserve">
<g>
	<path fill="#55A4DB" d="M74.747,25.451c-3.76,9.985-11.893,33.088-12.804,48.057c-0.329,5.451,11.799,6.134,11.396,3.519
		c-2.898-18.815,3.115-41.667,6.207-51.657C77.94,25.429,76.326,25.491,74.747,25.451"/>
	<path fill="#55A4DB" d="M116.493,4.861c-26.303,29.838-74.71,5.09-91.564,26.816c-1.322,1.704-0.125,10.073,1.216,11.697
		c10.043-23.904,67.772-7.328,93.559-28.765C121.402,13.204,118.084,3.057,116.493,4.861"/>
	<path fill="#55A4DB" d="M115.582,47.385c-0.101,0.47-0.301,1.168-0.576,2.029c-2.919,2.061-6.457,2.938-10.092,2.883
		c-0.006-0.008-0.009-0.023-0.009-0.023c0.201-1.201-0.942-0.934-2.145-0.102c-0.046-0.002-0.089-0.002-0.135-0.012l0.01,0.1
		c-1.643,1.178-3.303,3.359-1.746,4.305c0.761,7.312-1.539,16.467-7.31,16.861c-9.218,0.635-6.777-24.949,2.377-25.312
		c1.642-0.064,2.918,0.692,3.851,1.975c0.048,1.931,4.638-0.922,2.645-2.928c-6.454-7.216-21.507,0.418-21.66,17.205
		c-0.091,10.518,6.601,15.893,14.164,13.621c8.742-2.621,10.488-11.885,10.421-20.148c2.84-0.566,5.528-1.762,7.956-3.377
		c-3.147,9.328-7.993,23.734-4.452,23.734h1.25c2.678,0,6.517-7.346,10.64-14.064c2.426-3.948,4.989-8.032,8.548-11.076
		c2.577-2.213,1.545,9.467,1.499,10.74c-0.156,4.445-1.219,11.431,4.89,11.431c1.841,0,4.453-0.533,6.972-1.704
		c0.423,1.271,1.085,2.428,2.089,3.387c5.123,4.875,13.227-8.709,15.34-11.984c0,5.269,1.027,15.388,8.42,13.197
		c4.363-1.293,10.814-8.295,15.324-25.013c1.408,0.911,2.463,2.213,2.463,3.998c0,5.017-4.221,18.138,2.525,20.729
		c3.842,1.473,8.137-1.537,11.674-5.396c0.402,1.706,1.203,3.238,2.541,4.468c5.316,4.875,13.264-8.709,15.449-11.984
		c0,5.269,0.901,14.685,8.736,13.197c7.264-1.377,30.364-15.15,31.223-19.947c0.445-2.502-5.449-8.315-5.98-6.43
		c-0.67,2.358-16.197,17.053-21.424,20.026c-10.816,6.147-8.648-6.944-7.398-12.97c0.42-2.018,4.377-8.801,0.164-8.801
		c-2.803,0-4.145,5.187-5.137,7.141c-0.666,1.312-11.506,18.812-12.316,15.143c-0.764-3.38-0.125-7.072,1.332-10.582
		c0.021-0.072,0.062-0.15,0.078-0.222c2.631-6.171,7.816-11.753,12.695-14.062c3.668-1.742,6.189-5.185,0.297-5.185
		c-4.787,0-8.754,3.239-11.736,6.671c-3.074,3.534-7.588,11.152-8.615,17.967c-1.455,2.225-2.94,4.191-4.319,5.197
		c-8.851,6.465-2.633-12.949-2.633-16.095c0-4.761-3.74-7.187-7.589-9.331c-3.786-2.1-2.346-4.726-2.623-8.309
		c-0.405-5.055-4.428-6.323-6.676-1.106c-1.5,3.473-1.848,7.771-0.041,11.213c0.646,1.226,1.199,2.377,1.699,3.274
		c-0.25,6.996-3.67,14.695-5.688,17.267c-7.545,9.584-7.873-4.155-6.674-10.181c0.402-2.018,3.412-8.801-0.646-8.801
		c-2.695,0-3.992,5.187-4.947,7.141c-0.641,1.312-11.537,18.812-12.322,15.143c-2.032-9.398,7.154-20.216,14.043-24.865
		c1.363-0.914,5.974-5.185,0.287-5.185c-4.612,0-8.436,3.239-11.313,6.671c-3.162,3.778-8.121,12.227-8.796,19.362
		c-0.003,0.005-0.006,0.008-0.016,0.012c-6.682,4.937-6.042-2.252-6.042-6.351c0-4.133,1.523-12.372-1.478-15.547
		c-4.437-4.674-15.525,12.359-17.195,14.699c0.817-5.912,2.572-6.769,3.48-12.592C121.972,41.833,116.789,41.924,115.582,47.385"/>
</g>
</svg>
